<svg width="20" height="20" viewBox="0 0 20 20" fill="none" xmlns="http://www.w3.org/2000/svg">
<path d="M10 20C15.4706 20 20 15.4608 20 10C20 4.52941 15.4608 0 9.9902 0C4.52941 0 0 4.52941 0 10C0 15.4608 4.53922 20 10 20ZM10 18.3333C5.37255 18.3333 1.67647 14.6274 1.67647 10C1.67647 5.37255 5.36274 1.66667 9.9902 1.66667C14.6176 1.66667 18.3333 5.37255 18.3333 10C18.3333 14.6274 14.6274 18.3333 10 18.3333ZM5.42157 11.4216C6.20588 11.4216 6.84314 10.7843 6.84314 9.9902C6.84314 9.20588 6.19608 8.56863 5.42157 8.56863C4.62745 8.56863 3.9902 9.20588 3.9902 9.9902C3.9902 10.7843 4.62745 11.4216 5.42157 11.4216ZM9.9902 11.4216C10.7745 11.4216 11.4216 10.7843 11.4216 9.9902C11.4216 9.20588 10.7745 8.56863 9.9902 8.56863C9.20588 8.56863 8.55882 9.20588 8.55882 9.9902C8.55882 10.7843 9.20588 11.4216 9.9902 11.4216ZM14.5686 11.4216C15.3529 11.4216 15.9902 10.7843 15.9902 9.9902C15.9902 9.20588 15.3529 8.56863 14.5686 8.56863C13.7745 8.56863 13.1373 9.20588 13.1373 9.9902C13.1373 10.7843 13.7745 11.4216 14.5686 11.4216Z" fill="#007AFF"/>
</svg>
