<svg width="282" height="348" viewBox="0 0 282 348" fill="none" xmlns="http://www.w3.org/2000/svg">
<path d="M156.354 36.2557V34.1895L154.288 35.2226L151.188 39.3551L149.122 44.5207C149.122 44.5207 150.139 46.1374 151.188 46.587C152.301 47.0638 155.321 46.587 155.321 46.587C155.321 46.587 157.496 46.1859 159.453 45.5538C162.029 44.7224 165.652 42.4545 165.652 42.4545L164.619 40.3882L162.553 39.3551H158.42L156.354 36.2557Z" fill="#5B5B5B"/>
<path d="M185.281 65.3061L185.327 53.797L184.248 53.818L187.347 49.6854L188.38 47.6192L190.447 43.4867L195.612 38.321V33.1554L191.48 31.0892L187.347 26.9567V22.8241V21.791H174.95L170.817 22.8241L167.718 26.9567L166.685 31.0892L167.718 33.1554L166.685 35.2217L163.585 37.2879V34.1885L162.552 32.1223L160.486 31.0892C160.486 31.0892 159.185 30.834 158.42 31.0892L158.419 31.0892C157.337 31.4501 155.32 32.1225 155.32 36.2548C155.467 37.7021 156.211 38.4974 157.387 39.3542C158.418 40.1056 159.22 40.229 160.486 40.3873C161.287 40.4874 162.552 40.3873 162.552 40.3873C162.552 40.3873 163.946 40.8189 164.618 41.4204C164.951 41.7184 164.967 44.6461 165.652 46.5861C166.252 48.2875 167.718 50.7186 167.718 50.7186V51.7517V57.9505L174.95 65.3061H185.281Z" fill="#A9A9A9"/>
<path d="M178.049 2.16222C180.487 3.64406 183.215 7.32785 183.215 7.32785L178.049 12.4935L170.817 17.6591L163.586 29.0235L159.453 31.0898L155.321 35.2223C155.321 35.2223 153.272 36.9705 152.221 38.3217C150.56 40.458 149.122 44.5204 149.122 44.5204C149.122 44.5204 149.103 43.8903 149.122 43.4873C149.201 41.8257 150.155 39.3548 150.155 39.3548C150.155 39.3548 151.28 36.7619 152.221 35.2223C153.273 33.5009 155.321 31.0898 155.321 31.0898L153.254 26.9573C152.221 24.891 152.019 24.58 151.188 21.7916C150.382 19.0849 150.644 17.3311 151.188 14.5597C151.78 11.5446 152.477 9.81078 154.287 7.32785C156.664 4.06761 158.758 2.50101 162.552 1.12909C164.487 0.429552 165.665 0.232814 167.718 0.095967C171.823 -0.177726 174.533 0.0250802 178.049 2.16222Z" fill="#8B8B8B"/>
<path d="M193.544 4.22852C189.412 4.22853 187.355 4.50768 183.213 6.29477C177.183 8.89681 174.224 12.8205 169.782 17.6592C165.308 22.5342 159.451 31.0898 159.451 31.0898C159.451 31.0898 161.648 31.2208 162.551 32.1229C163.977 33.5494 163.584 37.2886 163.584 37.2886C163.584 37.2886 166.647 36.2848 167.716 34.1892C168.633 32.3923 167.219 30.9787 167.716 29.0236C168.296 26.7435 168.884 25.2009 170.816 23.8579C172.831 22.457 177.014 22.8248 177.014 22.8248H208.008C211.6 22.8248 212.141 20.7096 212.141 18.6923C212.141 16.675 211.718 14.8651 209.041 13.5267C207.201 12.6066 202.842 13.5267 202.842 13.5267C202.842 13.5267 203.178 9.36473 201.809 7.3279C199.886 4.46691 196.992 4.22851 193.544 4.22852Z" fill="#5B5B5B"/>
<path d="M190.448 58.0491C189.172 59.325 188.382 62.1816 188.382 62.1816C188.382 62.1816 192.226 60.456 194.58 61.1485C197.91 62.1278 198.793 65.0432 199.746 68.3804C201.812 75.6123 202.926 79.7036 202.845 86.9767C202.778 93.0416 202.02 98.3411 200.779 102.474C199.896 105.417 198.85 107.564 196.647 109.705C195.603 110.719 193.547 111.772 193.547 111.772L192.514 99.3742L185.282 115.904L186.315 131.401C186.315 131.401 188.045 132.978 189.415 133.467C191.315 134.146 194.58 133.467 194.58 133.467V119.004C194.58 119.004 198.005 117.487 199.746 115.904C201.899 113.947 202.539 112.288 203.879 109.705C208.004 101.753 209.044 95.935 209.044 86.9767C209.044 79.7448 208.15 73.2452 205.945 66.3141C204.577 62.0156 202.845 60.1154 200.779 58.0491C199.503 56.7732 198.217 56.2072 196.647 55.9829C194.121 55.622 192.252 56.2448 190.448 58.0491Z" fill="#5B5B5B"/>
<path d="M197.677 37.288C198.546 31.7067 197.677 22.8242 197.677 22.8242H187.346C187.346 22.8242 185.556 28.4036 187.346 31.0892C187.979 32.0387 188.502 32.4678 189.412 33.1555C191.146 34.4648 194.706 33.0528 194.578 35.2217C194.525 36.1223 194.147 36.6157 193.545 37.288C192.173 38.8211 188.379 38.3211 188.379 38.3211C188.379 38.3211 187.933 42.761 187.346 45.553C187.004 47.181 187.127 48.2347 186.313 49.6855C185.476 51.1784 184.7 51.9356 183.214 52.7849C181.428 53.8056 180.105 53.818 178.048 53.818C175.991 53.818 172.882 52.7849 172.882 52.7849L167.717 50.7186V51.7518C167.717 51.7518 169.432 53.8443 170.816 54.8511C172.275 55.9124 173.247 56.3169 174.949 56.9174C176.889 57.6021 178.057 57.9505 180.114 57.9505C182.172 57.9505 185.326 56.9785 185.326 56.9785V53.797C185.326 53.797 185.863 53.1352 186.313 52.7849C187.937 51.5219 189.756 51.8425 191.479 50.7186C192.435 50.0953 194.578 47.6193 194.578 47.6193C194.578 47.6193 194.93 47.224 195.611 45.553C196.867 42.4719 197.166 40.5755 197.677 37.288Z" fill="#8B8B8B"/>
<path d="M201.81 104.442C196.039 106.435 205.942 96.2698 205.942 96.2698L216.564 94.2896C216.564 94.2896 216.853 96.8927 217.307 103.409C217.81 110.623 219.047 116.314 224.539 113.74C232.246 110.128 231.291 110.468 231.291 110.468C231.291 110.468 236.85 107.718 242.992 101.662C246.463 98.2396 246.677 94.2268 251.095 92.167C255.034 90.331 258.385 89.4588 262.204 91.5312C264.447 92.7481 265.959 93.829 266.703 96.2699C267.229 97.9958 266.885 99.1096 266.583 100.889C266.202 103.139 266.795 106.98 264.592 106.383C263.721 106.147 263.571 105.384 262.78 104.949C259.227 102.995 256.712 106.796 252.985 108.393C251.13 109.187 250.041 109.553 248.306 110.582C246.537 111.632 245.706 112.466 244.065 113.707C236.728 119.258 232.269 124.354 224.539 128.204C216.809 132.054 215.24 131.303 209.042 131.303C206.217 131.303 203.876 125.104 202.843 117.872C202.156 113.063 206.402 102.855 201.81 104.442Z" fill="#8B8B8B"/>
<path d="M213.174 188.125C212.989 174.403 210.489 151.559 210.489 151.559L206.975 149.899L159.584 159.079C159.584 159.079 160.084 171.44 160.485 179.903C160.888 188.405 160.102 194.086 160.485 202.589C161.212 218.731 161.273 227.775 160.485 243.914C159.657 260.858 158.418 269.742 156.352 287.305C155.137 297.637 152.22 318.299 152.22 318.299H171.849C171.849 318.299 173.155 311.381 173.915 306.935C176.454 292.086 177.507 283.69 179.081 268.709C180.857 251.813 181.37 242.287 182.18 225.318C183.104 205.969 183.214 189.158 183.214 175.728C183.214 172.875 185.526 170.562 188.379 170.562C191.232 170.562 193.545 172.875 193.545 175.728V188.125C193.545 188.125 193.841 210.796 193.545 225.318C193.182 243.085 192.829 253.056 191.479 270.775C190.06 289.39 186.313 318.299 186.313 318.299H203.876C203.876 318.299 208.235 286.877 210.075 266.643C211.795 247.72 212.713 237.081 213.174 218.086C213.458 206.389 213.333 199.824 213.174 188.125Z" fill="#5B5B5B"/>
<path d="M271.273 78.3626C271.695 77.9448 272.386 77.9848 272.758 78.4486L279.754 87.1937C280.079 87.5997 280.038 88.1869 279.66 88.5445L261.415 105.824C260.939 106.276 260.164 106.153 259.85 105.577L254.578 95.904C254.365 95.5129 254.436 95.028 254.752 94.7147L271.273 78.3626Z" fill="#0098EA"/>
<path d="M202.297 62.3653C200.673 62.729 199.764 63.3589 198.687 64.6269C197.381 66.1646 196.878 67.5035 197.019 69.5159C197.316 73.7652 197.891 76.5026 198.572 80.9617C199.434 86.602 201.085 95.3546 201.085 95.3546C201.085 95.3546 204.764 96.5176 207.308 96.3144C210.95 96.0235 216.852 94.0006 216.852 94.0006L214.587 80.0939L213.651 73.8799C213.651 73.8799 212.963 70.0701 211.732 67.9856C210.356 65.6551 209.354 64.1149 206.866 63.0508C205.207 62.3413 204.057 61.9708 202.297 62.3653Z" fill="#5B5B5B" stroke="#5B5B5B"/>
<path d="M150.153 64.15C149.282 64.8871 148.087 66.2162 148.087 66.2162C148.087 66.2162 150.769 66.4355 152.219 67.2494C153.712 68.0868 154.352 68.936 155.319 70.3487C156.76 72.4547 156.979 74.0282 157.385 76.5475C158.03 80.5507 156.352 86.8788 156.352 86.8788L154.286 100.309L155.319 102.376C155.319 102.376 155.883 116.835 156.352 126.138C157.002 139.032 157.385 159.198 157.385 159.198L211.108 151.966C211.108 151.966 211.247 145.037 211.108 140.601C210.934 135.061 210.63 131.909 210.109 126.492L210.075 126.138C209.451 119.662 208.008 109.608 208.008 109.608C208.008 109.608 206.876 98.2583 205.942 91.0113C205.213 85.3523 205.207 82.1686 203.876 76.5475C203.109 73.3101 202.158 71.3093 200.776 68.2825C199.569 65.6356 198.701 64.141 196.644 62.0837C194.587 60.0265 193.292 58.5506 190.445 57.9512C188.866 57.6188 185.615 57.8468 185.615 57.8468V61.3176C185.615 61.3176 185.615 62.7637 184.459 63.6314C183.109 64.6438 182.177 64.7838 180.12 64.7884C177.183 64.7949 176.522 64.4709 173.915 63.1169C171.119 61.6643 167.716 57.9512 167.716 57.9512L160.484 60.0175C160.484 60.0175 153.47 61.3431 150.153 64.15Z" fill="#F7F9FB" stroke="#5B5B5B"/>
<path d="M152.221 60.0169C150.945 61.2927 150.155 64.1494 150.155 64.1494C150.155 64.1494 153.999 62.4238 156.354 63.1163C159.683 64.0956 161.599 67.011 162.553 70.3481C164.619 77.58 165.732 81.6714 165.652 88.9444C165.585 95.0094 164.619 101.342 162.553 105.474C161.178 108.223 160.624 109.532 158.42 111.673C157.377 112.687 155.536 113.668 155.536 113.668L155.321 102.388L154.09 100.942L147.056 117.872L148.089 133.369C148.089 133.369 149.818 134.946 151.188 135.435C153.088 136.114 156.354 135.435 156.354 135.435V120.971C156.354 120.971 159.779 119.454 161.519 117.872C163.672 115.915 166.378 112.19 167.718 109.607C169.862 105.474 171.851 97.9027 171.851 88.9444C171.851 81.7125 170.957 75.213 168.751 68.2819C167.384 63.9834 165.652 62.0831 163.586 60.0169C162.31 58.741 159.991 58.175 158.42 57.9506C155.894 57.5898 154.026 58.2125 152.221 60.0169Z" fill="#5B5B5B"/>
<path d="M135.69 112.707C136.33 106.635 137.757 97.21 137.757 97.21L154.287 101.342C154.287 101.342 151.159 111.295 150.154 117.872C149.238 123.868 149.117 127.304 149.121 133.369C149.126 141.88 151.187 155.065 151.187 155.065C151.187 155.065 152.438 168.631 155.32 176.761C156.949 181.356 160.492 183.25 160.485 188.125C160.479 192.471 159.849 195.875 156.353 198.456C154.3 199.972 152.68 200.883 150.154 200.523C148.368 200.267 147.505 199.483 146.022 198.456C144.145 197.157 140.415 196.066 141.889 194.324C142.472 193.635 143.226 193.822 143.955 193.291C147.231 190.901 144.854 187.012 144.988 182.959C145.055 180.943 145.185 179.802 144.988 177.794C144.788 175.746 144.384 174.64 143.955 172.628C142.038 163.63 137.757 149.899 137.757 149.899C137.757 149.899 135.007 139.292 134.657 132.336C134.515 129.516 134.571 127.927 134.657 125.104C134.806 120.248 135.181 117.538 135.69 112.707Z" fill="#A9A9A9"/>
<path d="M149.823 65.9864C148.042 65.8191 146.902 66.158 145.379 67.0895C143.533 68.219 142.573 69.4123 142.047 71.5019C140.936 75.9143 140.613 78.8835 139.825 83.636C138.829 89.6474 137.604 99.0794 137.604 99.0794C137.604 99.0794 141.6 100.651 144.269 101.286C148.089 102.194 154.266 102.389 154.266 102.389L156.488 88.0484L157.599 81.4298C157.599 81.4298 158.164 77.3343 157.599 74.8112C156.968 71.9902 156.456 70.0955 154.266 68.1926C152.806 66.9239 151.754 66.1678 149.823 65.9864Z" fill="#5B5B5B" stroke="#5B5B5B"/>
<path d="M271.606 79.7299C271.82 79.528 272.162 79.5544 272.343 79.7871L278.342 87.5007C278.501 87.7041 278.478 87.9943 278.291 88.1712L261.26 104.257C261.027 104.476 260.652 104.424 260.487 104.15L255.343 95.5762C255.222 95.3746 255.258 95.116 255.429 94.9549L271.606 79.7299Z" fill="white" stroke="#0098EA"/>
<path d="M256.565 92.0437C255.067 91.4444 254.499 92.0437 254.499 92.0437L252.433 94.11V97.2094L255.532 96.1762C255.532 96.1762 260.174 98.6867 260.698 98.2425C261.458 97.598 261.6 96.0453 260.698 95.1431C259.665 94.11 258.154 92.6795 256.565 92.0437Z" fill="#8B8B8B"/>
<path d="M179.083 30.0568C177.807 30.0568 177.016 29.0237 174.95 30.0568C174.589 30.2372 173.917 31.0899 173.917 31.0899C173.917 31.0899 173.917 30.0568 174.95 29.0237C175.983 27.9905 180.427 26.5471 181.149 27.9905C181.51 28.7123 181.149 30.0568 181.149 30.0568H179.083Z" fill="#5B5B5B"/>
<path d="M194.578 29.632C193.302 29.632 192.511 28.5989 190.445 29.632C190.084 29.8124 189.412 30.6651 189.412 30.6651C189.412 30.6651 189.412 29.632 190.445 28.5988C191.478 27.5657 195.922 26.1223 196.644 27.5657C197.005 28.2875 196.644 29.632 196.644 29.632H194.578Z" fill="#5B5B5B"/>
<rect x="133.624" y="330.697" width="138.439" height="4.13251" rx="2" fill="#5B5B5B"/>
<path d="M172.825 324.497C172.676 321.651 171.994 317.266 171.994 317.266L165.341 316.232L158.688 318.299C158.688 318.299 157.229 319.687 156.193 320.365C153.544 322.099 151.703 322.431 148.709 322.431C146.214 322.431 144.8 322.793 143.719 323.464C142.056 324.497 141.597 326.918 142.056 328.63C142.347 329.713 143.719 330.696 143.719 330.696H172.825C172.825 330.696 172.952 326.913 172.825 324.497Z" fill="#5B5B5B"/>
<circle cx="247.267" cy="336.895" r="4.13251" fill="#5B5B5B"/>
<circle cx="252.433" cy="339.994" r="4.66563" fill="#8B8B8B" stroke="#5B5B5B"/>
<path d="M186.313 324.497C186.499 321.651 187.346 317.266 187.346 317.266L195.611 316.232L203.876 318.299C203.876 318.299 205.689 319.687 206.976 320.365C210.267 322.099 212.554 322.431 216.274 322.431C219.373 322.431 221.13 322.793 222.473 323.464C224.539 324.497 225.109 326.918 224.539 328.63C224.178 329.713 222.473 330.696 222.473 330.696H186.313C186.313 330.696 186.156 326.913 186.313 324.497Z" fill="#5B5B5B"/>
<circle cx="144.637" cy="329.402" r="16.53" fill="#A9A9A9"/>
<circle cx="128.107" cy="319.072" r="16.53" fill="#A9A9A9"/>
<circle cx="117.776" cy="331.469" r="16.53" fill="#A9A9A9"/>
<circle cx="107.446" cy="306.674" r="18.5963" fill="#A9A9A9"/>
<circle cx="79.55" cy="307.708" r="23.7619" fill="#A9A9A9"/>
<circle cx="87.8156" cy="324.238" r="23.7619" fill="#A9A9A9"/>
<circle cx="56.8223" cy="313.907" r="13.4306" fill="#A9A9A9"/>
<circle cx="69.2187" cy="330.436" r="13.4306" fill="#A9A9A9"/>
<circle cx="47.524" cy="329.404" r="18.5963" fill="#A9A9A9"/>
<circle cx="99.1815" cy="281.879" r="2.06625" fill="#A9A9A9"/>
<circle cx="43.3914" cy="302.543" r="2.06625" fill="#A9A9A9"/>
<circle cx="14.4627" cy="302.543" r="2.06625" fill="#A9A9A9"/>
<circle cx="2.06625" cy="312.874" r="2.06625" fill="#A9A9A9"/>
<circle cx="26.8618" cy="321.138" r="6.19876" fill="#A9A9A9"/>
<circle cx="81.616" cy="276.714" r="3.09938" fill="#A9A9A9"/>
</svg>
